<svg width="23" height="24" viewBox="0 0 23 24" fill="none" xmlns="http://www.w3.org/2000/svg">
<path d="M8.58848 14.7L9.97223 16.2L13.6622 12.2" stroke="#FFC327" stroke-width="1.5" stroke-linecap="round" stroke-linejoin="round"/>
<path d="M9.225 6H12.915C14.76 6 14.76 5 14.76 4C14.76 2 13.8375 2 12.915 2H9.225C8.3025 2 7.38 2 7.38 4C7.38 6 8.3025 6 9.225 6Z" stroke="#FFC327" stroke-width="1.5" stroke-miterlimit="10" stroke-linecap="round" stroke-linejoin="round"/>
<path d="M14.76 4.02C17.8319 4.2 19.3725 5.43 19.3725 10V16C19.3725 20 18.45 22 13.8375 22H8.3025C3.69 22 2.7675 20 2.7675 16V10C2.7675 5.44 4.30807 4.2 7.38 4.02" stroke="#FFC327" stroke-width="1.5" stroke-miterlimit="10" stroke-linecap="round" stroke-linejoin="round"/>
</svg>
