<svg width="23" height="24" viewBox="0 0 23 24" fill="none" xmlns="http://www.w3.org/2000/svg">
<path d="M12.0017 2.91995L17.4445 5.53995C19.0127 6.28995 19.0127 7.52995 17.4445 8.27995L12.0017 10.8999C11.3837 11.1999 10.3689 11.1999 9.75083 10.8999L4.30808 8.27995C2.73983 7.52995 2.73983 6.28995 4.30808 5.53995L9.75083 2.91995C10.3689 2.61995 11.3837 2.61995 12.0017 2.91995Z" stroke="#5B93FF" stroke-width="1.5" stroke-linecap="round" stroke-linejoin="round"/>
<path d="M2.76749 11C2.76749 11.84 3.34866 12.81 4.05899 13.15L10.3228 16.17C10.8025 16.4 11.3467 16.4 11.8172 16.17L18.081 13.15C18.7913 12.81 19.3725 11.84 19.3725 11" stroke="#5B93FF" stroke-width="1.5" stroke-linecap="round" stroke-linejoin="round"/>
<path d="M2.76749 16C2.76749 16.93 3.27486 17.77 4.05899 18.15L10.3228 21.17C10.8025 21.4 11.3467 21.4 11.8172 21.17L18.081 18.15C18.8651 17.77 19.3725 16.93 19.3725 16" stroke="#5B93FF" stroke-width="1.5" stroke-linecap="round" stroke-linejoin="round"/>
</svg>
